<?xml version="1.0" encoding="UTF-8"?>
<svg id="Capa_1" xmlns="http://www.w3.org/2000/svg" version="1.1" viewBox="0 0 336.6 333.6">
  <!-- Generator: Adobe Illustrator 29.2.1, SVG Export Plug-In . SVG Version: 2.1.0 Build 116)  -->
  <defs>
    <style>
      .st0 {
        fill: #52ae32;
      }

      .st1 {
        fill: #1d1d1b;
      }
    </style>
  </defs>
  <path class="st0" d="M218.5,32.7c12.3,10.5,22.2,27,21.2,43.7s-10.5,29.5-21.3,38.1c-9.4-8.6-12.9-14.8-14.5-17.7-13.5-24.3-4.7-46.7,14.6-64.2Z"/>
  <path class="st1" d="M189.8,280.5c-11.6,2.8-24.3,4.3-38,4.3s-27.3-2.3-39.3-6.8c-12-4.5-22.3-10.9-30.9-19.1-8.6-8.2-15.4-18-20.2-29.5-4.9-11.5-7.3-24.2-7.3-38.3s2.5-27.1,7.4-38.7c4.9-11.5,11.8-21.4,20.5-29.5,8.7-8.1,18.9-14.3,30.6-18.7,11.7-4.3,24.3-6.5,37.9-6.5s27.1,2.1,39.2,6.4c12,4.3,21.8,10,29.4,17.2l-27.1,30.9c-4.2-4.9-9.7-8.8-16.6-11.9-6.9-3.1-14.6-4.6-23.3-4.6s-14.5,1.4-20.8,4.1c-6.4,2.8-11.9,6.6-16.6,11.5-4.7,4.9-8.3,10.8-10.9,17.6-2.6,6.8-3.9,14.2-3.9,22.2s1.2,15.7,3.5,22.6c2.3,6.9,5.8,12.8,10.4,17.7,4.6,4.9,10.3,8.8,17.1,11.5,6.8,2.8,14.5,4.1,23.2,4.1s9.8-.4,14.3-1.1,8.7-2,12.5-3.6v-32.4h-33.9v-34.6h73.3v94.1c-8.7,4.5-18.9,8.2-30.5,11Z"/>
  <path class="st0" d="M304.8,118.4c-10.5,12.3-27,22.2-43.7,21.2s-29.5-10.5-38.1-21.3c8.6-9.4,14.8-12.9,17.7-14.5,24.3-13.5,46.7-4.7,64.2,14.6Z"/>
</svg>